<?xml version="1.0" encoding="UTF-8" standalone="no"?>
<!-- Generator: Adobe Illustrator 23.1.1, SVG Export Plug-In . SVG Version: 6.00 Build 0)  -->

<svg
   version="1.1"
   id="Layer_1"
   x="0px"
   y="0px"
   viewBox="0 0 128 128"
   xml:space="preserve"
   width="128"
   height="128"
   xmlns="http://www.w3.org/2000/svg">
<style
   type="text/css"
   id="style420">
	.st0{fill:url(#XMLID_37_);}
	.st1{fill:#EEF2F4;}
	.st2{opacity:0.19;fill:#2D2D2D;stroke:#2D2D2D;stroke-width:6;stroke-miterlimit:10;}
	.st3{fill:#B4D8ED;}
	.st4{opacity:0.73;fill:#7BA9BF;}
	.st5{fill:none;stroke:#2D2D2D;stroke-width:6;stroke-linecap:round;stroke-linejoin:round;stroke-miterlimit:10;}
	.st6{fill:#4F5C68;}
	.st7{fill:#35BC6C;}
	.st8{fill:#2AA85D;}
	.st9{fill:#FFC661;}
	.st10{fill:#3C4652;}
	.st11{fill:#363F49;}
	.st12{fill:#2F3942;}
	.st13{fill:#46515B;}
	.st14{fill:#4F5E6D;}
	.st15{fill:none;stroke:#2D2D2D;stroke-width:5;stroke-linecap:round;stroke-linejoin:round;stroke-miterlimit:10;}
	.st16{fill:#2D2D2D;}
	.st17{fill:#FC244D;}
	.st18{fill:#CE1D47;}
	.st19{fill:#232323;}
	.st20{fill:#2D2D2D;stroke:#2D2D2D;stroke-width:6;stroke-miterlimit:10;}
	.st21{opacity:0.2;}
	.st22{fill:#FFFFFF;}
</style>
<linearGradient
   id="XMLID_37_"
   gradientUnits="userSpaceOnUse"
   x1="500"
   y1="-147.01469"
   x2="500"
   y2="1036.8871">
	<stop
   offset="0"
   style="stop-color:#E03F3F"
   id="stop422" />
	<stop
   offset="1"
   style="stop-color:#CE0033"
   id="stop424" />
</linearGradient>



<g
   id="g1099"
   transform="matrix(0.33066141,0,0,0.33634528,-98.43753,-96.791228)"><path
     id="XMLID_102_"
     class="st2"
     d="m 643.4,405.1 h -258 v 81.5 h -18 v -130 0 c 0,-9.9 -8.1,-18 -18,-18 h -29.2 v 18 h 29.2 V 418 h -12 c -4.4,0 -8,3.6 -8,8 v 48 c 0,4.4 3.6,8 8,8 h 12 v 26.1 h -12 c -4.4,0 -8,3.6 -8,8 v 38 c 0,4.4 3.6,8 8,8 h 12 v 63.5 c 0,5 4,9 9,9 5,0 9,-4 9,-9 v -40.5 h 25.1 v 11.3 c 0,3.9 3.1,7 7,7 3.9,0 7,-3.1 7,-7 V 585.1 H 422 v 22 c 0,5.5 4.5,10 10,10 h 44 c 5.5,0 10,-4.5 10,-10 v -22 h 20.2 v 22 c 0,5.5 4.5,10 10,10 h 112 c 5.5,0 10,-4.5 10,-10 v -22 h 5.2 c 12.2,0 22,-9.8 22,-22 v -136 c 0,-12.1 -9.8,-22 -22,-22 z" /><g
     id="g793">
	<path
   id="XMLID_65_"
   class="st3"
   d="m 346.4,406 v 64 h -12 c -4.4,0 -8,-3.6 -8,-8 v -48 c 0,-4.4 3.6,-8 8,-8 z" />
	<path
   id="XMLID_56_"
   class="st3"
   d="m 346.4,496.1 v 54 h -12 c -4.4,0 -8,-3.6 -8,-8 v -38 c 0,-4.4 3.6,-8 8,-8 z" />
	
		<rect
   id="XMLID_79_"
   x="310.10001"
   y="433.70001"
   transform="rotate(-90,342.1251,438.0191)"
   class="st4"
   width="64"
   height="8.6000004" />
	
		<rect
   id="XMLID_77_"
   x="315.10001"
   y="518.79999"
   transform="rotate(-90,342.1251,523.0729)"
   class="st4"
   width="54"
   height="8.6000004" />
	<path
   id="XMLID_8_"
   class="st5"
   d="m 346.4,406 v 64 h -12 c -4.4,0 -8,-3.6 -8,-8 v -48 c 0,-4.4 3.6,-8 8,-8 z" />
	<path
   id="XMLID_9_"
   class="st5"
   d="m 346.4,496.1 v 54 h -12 c -4.4,0 -8,-3.6 -8,-8 v -38 c 0,-4.4 3.6,-8 8,-8 z" />
	<path
   id="XMLID_3_"
   class="st6"
   d="m 346.4,326.6 h -29.2 v 18 h 29.2 v 269 c 0,5 4,9 9,9 v 0 c 5,0 9,-4 9,-9 v -269 0 c 0,-9.9 -8,-18 -18,-18 z" />
	<path
   id="XMLID_64_"
   class="st5"
   d="m 346.4,326.6 h -29.2 v 18 h 29.2 v 269 c 0,5 4,9 9,9 v 0 c 5,0 9,-4 9,-9 v -269 0 c 0,-9.9 -8,-18 -18,-18 z" />
	<g
   id="g681">
		<path
   id="XMLID_50_"
   class="st7"
   d="m 513.2,605.1 h 112 c 5.5,0 10,-4.5 10,-10 v -22 h -132 v 22 c 0,5.5 4.5,10 10,10 z" />
		
			<rect
   id="XMLID_82_"
   x="503.20001"
   y="574.09998"
   transform="rotate(180,569.24805,578.70515)"
   class="st8"
   width="132"
   height="9.1999998" />
		<g
   id="XMLID_53_">
			<g
   id="g641">
				<path
   class="st9"
   d="m 628.3,605.1 h -7 v -14 c 0,-1.1 0.9,-2 2,-2 h 3 c 1.1,0 2,0.9 2,2 z"
   id="path639" />
			</g>
			<g
   id="g645">
				<path
   class="st9"
   d="m 616.3,605.1 h -7 v -14 c 0,-1.1 0.9,-2 2,-2 h 3 c 1.1,0 2,0.9 2,2 z"
   id="path643" />
			</g>
			<g
   id="g649">
				<path
   class="st9"
   d="m 604.3,605.1 h -7 v -14 c 0,-1.1 0.9,-2 2,-2 h 3 c 1.1,0 2,0.9 2,2 z"
   id="path647" />
			</g>
			<g
   id="g653">
				<path
   class="st9"
   d="m 592.3,605.1 h -7 v -14 c 0,-1.1 0.9,-2 2,-2 h 3 c 1.1,0 2,0.9 2,2 z"
   id="path651" />
			</g>
			<g
   id="g657">
				<path
   class="st9"
   d="m 580.3,605.1 h -7 v -14 c 0,-1.1 0.9,-2 2,-2 h 3 c 1.1,0 2,0.9 2,2 z"
   id="path655" />
			</g>
			<g
   id="g661">
				<path
   class="st9"
   d="m 568.3,605.1 h -7 v -14 c 0,-1.1 0.9,-2 2,-2 h 3 c 1.1,0 2,0.9 2,2 z"
   id="path659" />
			</g>
			<g
   id="g665">
				<path
   class="st9"
   d="m 556.3,605.1 h -7 v -14 c 0,-1.1 0.9,-2 2,-2 h 3 c 1.1,0 2,0.9 2,2 z"
   id="path663" />
			</g>
			<g
   id="g669">
				<path
   class="st9"
   d="m 544.3,605.1 h -7 v -14 c 0,-1.1 0.9,-2 2,-2 h 3 c 1.1,0 2,0.9 2,2 z"
   id="path667" />
			</g>
			<g
   id="g673">
				<path
   class="st9"
   d="m 532.3,605.1 h -7 v -14 c 0,-1.1 0.9,-2 2,-2 h 3 c 1.1,0 2,0.9 2,2 z"
   id="path671" />
			</g>
			<g
   id="g677">
				<path
   class="st9"
   d="m 520.3,605.1 h -7 v -14 c 0,-1.1 0.9,-2 2,-2 h 3 c 1.1,0 2,0.9 2,2 z"
   id="path675" />
			</g>
		</g>
		<path
   id="XMLID_4_"
   class="st5"
   d="m 513.2,605.1 h 112 c 5.5,0 10,-4.5 10,-10 v -22 h -132 v 22 c 0,5.5 4.5,10 10,10 z" />
	</g>
	<g
   id="g703">
		<path
   id="XMLID_20_"
   class="st7"
   d="m 429,605.1 h 44 c 5.5,0 10,-4.5 10,-10 v -22 h -64 v 22 c 0,5.5 4.5,10 10,10 z" />
		
			<rect
   id="XMLID_80_"
   x="419"
   y="574.09998"
   transform="rotate(180,450.99985,578.70515)"
   class="st8"
   width="64"
   height="9.1999998" />
		<g
   id="XMLID_51_">
			<g
   id="g687">
				<path
   class="st9"
   d="m 472.8,605.1 h -7 v -14 c 0,-1.1 0.9,-2 2,-2 h 3 c 1.1,0 2,0.9 2,2 z"
   id="path685" />
			</g>
			<g
   id="g691">
				<path
   class="st9"
   d="m 460.8,605.1 h -7 v -14 c 0,-1.1 0.9,-2 2,-2 h 3 c 1.1,0 2,0.9 2,2 z"
   id="path689" />
			</g>
			<g
   id="g695">
				<path
   class="st9"
   d="m 448.8,605.1 h -7 v -14 c 0,-1.1 0.9,-2 2,-2 h 3 c 1.1,0 2,0.9 2,2 z"
   id="path693" />
			</g>
			<g
   id="g699">
				<path
   class="st9"
   d="m 436.8,605.1 h -7 v -14 c 0,-1.1 0.9,-2 2,-2 h 3 c 1.1,0 2,0.9 2,2 z"
   id="path697" />
			</g>
		</g>
		<path
   id="XMLID_6_"
   class="st5"
   d="m 429,605.1 h 44 c 5.5,0 10,-4.5 10,-10 v -22 h -64 v 22 c 0,5.5 4.5,10 10,10 z" />
	</g>
	<path
   id="XMLID_7_"
   class="st10"
   d="m 640.4,393.1 h -258 v 81.5 h -18 v 98.5 h 276 c 12.2,0 22,-9.8 22,-22 v -136 c 0,-12.1 -9.8,-22 -22,-22 z" />
	<path
   id="XMLID_35_"
   class="st11"
   d="m 640.4,393.1 h -7.3 c 12.2,0 22,9.8 22,22 v 136 c 0,12.2 -9.8,22 -22,22 h 7.3 c 12.2,0 22,-9.8 22,-22 v -136 c 0,-12.1 -9.8,-22 -22,-22 z" />
	<path
   id="XMLID_34_"
   class="st12"
   d="m 640.4,565.2 h -276 v 7.9 h 276 c 12.2,0 22,-9.8 22,-22 v -7.9 c 0,12.2 -9.8,22 -22,22 z" />
	<g
   id="XMLID_30_">
		<path
   id="XMLID_31_"
   class="st13"
   d="m 640.4,393.1 h -258 v 9 h 258 c 12.2,0 22,9.8 22,22 v -9 c 0,-12.1 -9.8,-22 -22,-22 z" />
		<rect
   id="XMLID_32_"
   x="364.39999"
   y="474.60001"
   class="st13"
   width="18"
   height="9" />
	</g>
	<rect
   id="XMLID_5_"
   x="364.39999"
   y="474.60001"
   class="st12"
   width="10.2"
   height="98.5" />
	<path
   id="XMLID_49_"
   class="st5"
   d="m 640.4,393.1 h -258 v 81.5 h -18 v 98.5 h 276 c 12.2,0 22,-9.8 22,-22 v -136 c 0,-12.1 -9.8,-22 -22,-22 z" />
	<path
   id="XMLID_18_"
   class="st14"
   d="M 570.4,549.1 H 396.5 v -132 h 173.9 c 36.5,0 66,29.5 66,66 v 0 c 0,36.5 -29.5,66 -66,66 z" />
	<path
   id="XMLID_10_"
   class="st15"
   d="M 570.4,549.1 H 396.5 v -132 h 173.9 c 36.5,0 66,29.5 66,66 v 0 c 0,36.5 -29.5,66 -66,66 z" />
	<g
   id="g782">
		<circle
   id="XMLID_12_"
   class="st16"
   cx="570.29999"
   cy="483.10001"
   r="56" />
		<path
   id="XMLID_14_"
   class="st17"
   d="m 573.2,538.3 c -3.4,-3.4 -6.3,-7.3 -8.7,-11.5 -7.3,-12.6 -9.3,-27 -6,-40.9 -7.1,9.1 -11.1,20.4 -11.1,32.1 0,4.5 0.6,9 1.7,13.3 l 1.1,4.2 -3.9,-1.8 c -8.9,-4.2 -16.5,-10.7 -22.1,-18.8 l -0.5,-0.8 0.2,-0.9 c 1.3,-4.7 3.1,-9.1 5.5,-13.3 7.3,-12.6 18.8,-21.6 32.4,-25.6 -2.5,-0.4 -4.9,-0.5 -7.4,-0.5 -9.1,0 -18,2.4 -25.9,7 -3.9,2.2 -7.5,5 -10.6,8.1 l -3.1,3 -0.3,-4.3 c -0.1,-1.7 -0.2,-3.1 -0.2,-4.5 0,-8.4 1.8,-16.5 5.4,-24 l 0.4,-0.8 0.9,-0.2 c 4.7,-1.2 9.5,-1.9 14.3,-1.9 14.5,0 28.1,5.5 38.4,15.2 -4.3,-10.7 -12.1,-19.8 -22.2,-25.7 -3.9,-2.2 -8,-4 -12.4,-5.2 l -4.1,-1.1 3.5,-2.4 c 8.1,-5.6 17.5,-8.9 27.3,-9.7 l 0.9,-0.1 0.7,0.7 c 3.4,3.4 6.3,7.3 8.7,11.5 7.3,12.6 9.3,27 6,40.9 7.1,-9.1 11.1,-20.4 11.1,-32.1 0,-4.5 -0.6,-9 -1.7,-13.3 l -1.1,-4.2 3.9,1.8 c 8.9,4.2 16.5,10.7 22.1,18.8 l 0.5,0.8 -0.2,0.9 c -1.3,4.6 -3.1,9.1 -5.5,13.3 -7.3,12.6 -18.8,21.6 -32.4,25.6 2.5,0.4 4.9,0.5 7.4,0.5 9.1,0 18,-2.4 25.9,-7 3.9,-2.2 7.5,-5 10.6,-8.1 l 3.1,-3 0.3,4.3 c 0.1,1.7 0.2,3.1 0.2,4.5 0,8.4 -1.8,16.5 -5.4,24 l -0.4,0.8 -0.9,0.2 c -4.7,1.2 -9.5,1.9 -14.3,1.9 -14.5,0 -28.1,-5.5 -38.4,-15.2 4.3,10.7 12.1,19.8 22.2,25.7 3.9,2.2 8,4 12.4,5.2 l 4.1,1.1 -3.5,2.4 c -8.1,5.6 -17.5,8.9 -27.3,9.7 l -0.9,0.1 z" />
		<g
   id="XMLID_57_">
			<path
   id="XMLID_58_"
   class="st18"
   d="m 551.1,430.5 c 0.4,-0.2 0.8,-0.3 1.3,-0.4 -0.4,0.1 -0.8,0.3 -1.3,0.4 z" />
			<path
   id="XMLID_59_"
   class="st18"
   d="m 548.9,431.4 c -0.4,0.2 -0.8,0.3 -1.2,0.5 0.4,-0.2 0.8,-0.4 1.2,-0.5 z" />
			<path
   id="XMLID_60_"
   class="st18"
   d="m 550.7,430.7 c -0.4,0.2 -0.8,0.3 -1.2,0.5 0.3,-0.2 0.7,-0.4 1.2,-0.5 z" />
			<path
   id="XMLID_61_"
   class="st18"
   d="m 547.2,432.1 c -0.4,0.2 -0.7,0.3 -1.1,0.5 0.4,-0.2 0.7,-0.3 1.1,-0.5 z" />
			<path
   id="XMLID_62_"
   class="st18"
   d="m 545.5,432.9 c -0.3,0.2 -0.7,0.3 -1,0.5 0.3,-0.2 0.7,-0.3 1,-0.5 z" />
			<path
   id="XMLID_63_"
   class="st18"
   d="m 542.2,434.7 c -0.3,0.2 -0.5,0.3 -0.8,0.5 0.2,-0.2 0.5,-0.3 0.8,-0.5 z" />
			<path
   id="XMLID_66_"
   class="st18"
   d="m 543.8,433.8 c -0.3,0.2 -0.6,0.3 -0.9,0.5 0.3,-0.2 0.6,-0.4 0.9,-0.5 z" />
			<path
   id="XMLID_67_"
   class="st18"
   d="m 540.5,435.7 c -0.2,0.1 -0.4,0.3 -0.7,0.4 0.3,-0.1 0.5,-0.2 0.7,-0.4 z" />
			<path
   id="XMLID_68_"
   class="st18"
   d="m 538.8,436.8 c -0.1,0.1 -0.2,0.2 -0.4,0.2 l -0.3,0.2 c 0.3,-0.1 0.5,-0.2 0.7,-0.4 z" />
			<path
   id="XMLID_69_"
   class="st18"
   d="m 560.4,428 c -0.1,0 -0.3,0.1 -0.4,0.1 z" />
			<path
   id="XMLID_70_"
   class="st18"
   d="m 538,437.3 -3.1,2.2 0.2,0.1 c 1,-0.8 1.9,-1.6 2.9,-2.3 z" />
			<path
   id="XMLID_71_"
   class="st18"
   d="m 554.2,429.5 c -0.4,0.1 -0.9,0.3 -1.3,0.4 0.4,-0.1 0.8,-0.3 1.3,-0.4 z" />
			<path
   id="XMLID_72_"
   class="st18"
   d="m 556,429 c -0.5,0.1 -0.9,0.2 -1.4,0.4 0.5,-0.2 0.9,-0.3 1.4,-0.4 z" />
			<path
   id="XMLID_73_"
   class="st18"
   d="m 518.6,463.5 c 4.5,-1.7 9.2,-2.9 14,-3.4 14.4,-1.5 28.5,2.4 39.8,11.1 -0.3,-0.6 -0.6,-1.1 -0.9,-1.7 -10,-8.5 -22.7,-13.3 -36.2,-13.3 -4.8,0 -9.7,0.6 -14.3,1.9 l -0.9,0.2 -0.4,0.8 c -0.7,1.5 -1.4,3.1 -1.9,4.6 z" />
			<path
   id="XMLID_74_"
   class="st18"
   d="m 559.7,428.1 c -0.5,0.1 -1.1,0.2 -1.6,0.3 0.6,0 1.1,-0.2 1.6,-0.3 z" />
			<path
   id="XMLID_75_"
   class="st18"
   d="m 557.8,428.5 c -0.5,0.1 -1,0.2 -1.5,0.4 0.5,-0.1 1,-0.2 1.5,-0.4 z" />
			<path
   id="XMLID_78_"
   class="st18"
   d="m 624.9,495.6 c 0.1,-0.5 0.2,-1 0.3,-1.5 -0.1,0.5 -0.2,1 -0.3,1.5 z" />
			<path
   id="XMLID_81_"
   class="st18"
   d="m 561.5,428.5 c 3.7,3 7.1,6.6 9.9,10.5 8.5,11.7 12.1,25.9 10.3,40 0.3,-0.5 0.7,-1.1 1,-1.6 2.4,-12.9 0.1,-26.3 -6.6,-38 -2.4,-4.2 -5.4,-8 -8.7,-11.5 l -0.7,-0.7 -0.9,0.1 c -1.7,0.1 -3.3,0.3 -5,0.6 z" />
			<path
   id="XMLID_84_"
   class="st18"
   d="m 613.2,448.2 c -0.8,4.8 -2.1,9.4 -4.1,13.8 -5.9,13.3 -16.4,23.5 -29.5,28.9 0.6,0 1.3,0 1.9,0 12.4,-4.4 22.9,-13 29.6,-24.7 2.4,-4.2 4.3,-8.7 5.5,-13.3 l 0.2,-0.9 -0.5,-0.8 c -1,-1.4 -2,-2.7 -3,-4 z" />
			<path
   id="XMLID_87_"
   class="st18"
   d="m 626,477.2 c 0.1,0.8 0.1,1.5 0.2,2.3 0,-0.3 0,-0.5 -0.1,-0.8 l -0.3,-4.3 -0.1,0.1 c 0,0.9 0.2,1.8 0.3,2.7 z" />
			<path
   id="XMLID_88_"
   class="st18"
   d="m 622,502.8 c -4.5,1.7 -9.2,2.9 -14,3.4 -14.4,1.5 -28.5,-2.4 -39.8,-11.1 0.3,0.6 0.6,1.1 0.9,1.7 10,8.5 22.7,13.3 36.2,13.3 4.8,0 9.7,-0.6 14.3,-1.9 l 0.9,-0.2 0.4,-0.8 c 0.7,-1.5 1.4,-3.1 1.9,-4.6 z" />
			<path
   id="XMLID_89_"
   class="st18"
   d="m 626.2,480.8 c 0,0.8 0.1,1.5 0.1,2.3 0,-0.7 0,-1.5 -0.1,-2.3 z" />
			<path
   id="XMLID_90_"
   class="st18"
   d="m 625.5,492.4 c 0,-0.1 0,-0.2 0.1,-0.4 -0.1,0.2 -0.1,0.3 -0.1,0.4 z" />
			<path
   id="XMLID_91_"
   class="st18"
   d="m 624.8,496.1 c -0.4,1.8 -1,3.7 -1.6,5.5 v 0 c 0.6,-1.8 1.1,-3.6 1.6,-5.5 z" />
			<path
   id="XMLID_92_"
   class="st18"
   d="m 607.1,440.9 c -0.5,-0.4 -1,-0.9 -1.5,-1.3 0.4,0.5 1,0.9 1.5,1.3 z" />
			<path
   id="XMLID_93_"
   class="st18"
   d="m 604.3,438.7 c -0.6,-0.4 -1.1,-0.9 -1.7,-1.3 0.5,0.4 1.1,0.8 1.7,1.3 z" />
			<path
   id="XMLID_94_"
   class="st18"
   d="m 595,432.9 c -0.2,-0.1 -0.5,-0.3 -0.7,-0.4 l -3.9,-1.8 0.1,0.2 c 1.5,0.6 3,1.3 4.5,2 z" />
			<path
   id="XMLID_95_"
   class="st18"
   d="m 601.3,436.5 c -0.6,-0.4 -1.3,-0.8 -1.9,-1.2 0.7,0.4 1.3,0.8 1.9,1.2 z" />
			<path
   id="XMLID_96_"
   class="st18"
   d="m 598.2,434.6 c -0.6,-0.4 -1.3,-0.7 -2,-1.1 0.7,0.4 1.4,0.8 2,1.1 z" />
			<path
   id="XMLID_97_"
   class="st18"
   d="m 609.7,443.4 c -0.4,-0.4 -0.9,-0.8 -1.3,-1.3 0.4,0.4 0.9,0.9 1.3,1.3 z" />
			<path
   id="XMLID_98_"
   class="st18"
   d="m 611,444.8 c 0.4,0.4 0.8,0.8 1.1,1.2 -0.3,-0.4 -0.7,-0.8 -1.1,-1.2 z" />
			<path
   id="XMLID_99_"
   class="st18"
   d="m 533.5,525.3 c 0.5,0.4 1,0.9 1.5,1.3 -0.5,-0.4 -1,-0.8 -1.5,-1.3 z" />
			<path
   id="XMLID_100_"
   class="st18"
   d="m 545.6,533.4 c 0.2,0.1 0.5,0.3 0.7,0.4 l 3.9,1.8 -0.1,-0.2 c -1.5,-0.7 -3.1,-1.3 -4.5,-2 z" />
			<path
   id="XMLID_101_"
   class="st18"
   d="m 579.1,537.7 c -3.7,-3 -7.1,-6.6 -9.9,-10.5 -8.5,-11.7 -12.1,-25.9 -10.3,-40 -0.3,0.5 -0.7,1.1 -1,1.6 -2.4,12.9 -0.1,26.3 6.6,38 2.4,4.2 5.4,8 8.7,11.5 l 0.7,0.7 0.9,-0.1 c 1.7,-0.1 3.3,-0.3 5,-0.6 z" />
			<path
   id="XMLID_104_"
   class="st18"
   d="m 530.9,522.9 c 0.4,0.4 0.9,0.8 1.3,1.3 -0.5,-0.5 -0.9,-0.9 -1.3,-1.3 z" />
			<path
   id="XMLID_107_"
   class="st18"
   d="m 542.3,531.6 c 0.6,0.4 1.3,0.7 2,1.1 -0.7,-0.4 -1.3,-0.7 -2,-1.1 z" />
			<path
   id="XMLID_110_"
   class="st18"
   d="m 539.2,529.7 c 0.6,0.4 1.2,0.8 1.9,1.2 -0.6,-0.4 -1.3,-0.8 -1.9,-1.2 z" />
			<path
   id="XMLID_113_"
   class="st18"
   d="m 586.4,536.7 c 0.4,-0.1 0.9,-0.3 1.3,-0.4 -0.4,0.2 -0.9,0.3 -1.3,0.4 z" />
			<path
   id="XMLID_116_"
   class="st18"
   d="m 536.3,527.6 c 0.6,0.4 1.1,0.8 1.7,1.3 -0.6,-0.5 -1.1,-0.9 -1.7,-1.3 z" />
			<path
   id="XMLID_119_"
   class="st18"
   d="m 601.7,529.4 c 0.1,-0.1 0.2,-0.2 0.4,-0.2 l 0.3,-0.2 c -0.2,0.1 -0.4,0.3 -0.7,0.4 z" />
			<path
   id="XMLID_122_"
   class="st18"
   d="m 584.6,537.2 c 0.4,-0.1 0.9,-0.2 1.3,-0.4 -0.4,0.2 -0.8,0.3 -1.3,0.4 z" />
			<path
   id="XMLID_125_"
   class="st18"
   d="m 602.5,528.9 3.1,-2.2 -0.2,-0.1 c -0.9,0.9 -1.9,1.6 -2.9,2.3 z" />
			<path
   id="XMLID_128_"
   class="st18"
   d="m 580.1,538.2 c 0.1,0 0.3,0 0.4,-0.1 z" />
			<path
   id="XMLID_131_"
   class="st18"
   d="m 582.8,537.7 c 0.5,-0.1 0.9,-0.2 1.4,-0.3 -0.5,0.1 -0.9,0.2 -1.4,0.3 z" />
			<path
   id="XMLID_132_"
   class="st18"
   d="m 580.9,538.1 c 0.5,-0.1 1,-0.2 1.5,-0.3 -0.5,0.1 -1,0.2 -1.5,0.3 z" />
			<path
   id="XMLID_133_"
   class="st18"
   d="m 598.4,531.5 c 0.3,-0.2 0.5,-0.3 0.8,-0.5 -0.3,0.2 -0.5,0.4 -0.8,0.5 z" />
			<path
   id="XMLID_134_"
   class="st18"
   d="m 591.6,534.9 c 0.4,-0.2 0.8,-0.3 1.1,-0.5 -0.3,0.2 -0.7,0.3 -1.1,0.5 z" />
			<path
   id="XMLID_135_"
   class="st18"
   d="m 593.4,534.1 c 0.4,-0.2 0.7,-0.3 1.1,-0.5 -0.4,0.2 -0.8,0.4 -1.1,0.5 z" />
			<path
   id="XMLID_136_"
   class="st18"
   d="m 589.9,535.5 c 0.4,-0.1 0.8,-0.3 1.2,-0.5 -0.4,0.2 -0.8,0.4 -1.2,0.5 z" />
			<path
   id="XMLID_137_"
   class="st18"
   d="m 589.4,535.7 c -0.4,0.1 -0.8,0.3 -1.2,0.4 0.4,-0.1 0.8,-0.2 1.2,-0.4 z" />
			<path
   id="XMLID_138_"
   class="st18"
   d="m 595,533.3 c 0.3,-0.2 0.7,-0.3 1,-0.5 -0.3,0.2 -0.6,0.4 -1,0.5 z" />
			<path
   id="XMLID_139_"
   class="st18"
   d="m 600.1,530.5 c 0.2,-0.1 0.4,-0.3 0.7,-0.4 -0.3,0.2 -0.5,0.3 -0.7,0.4 z" />
			<path
   id="XMLID_140_"
   class="st18"
   d="m 596.7,532.5 c 0.3,-0.2 0.6,-0.3 0.9,-0.5 -0.3,0.1 -0.6,0.3 -0.9,0.5 z" />
			<path
   id="XMLID_141_"
   class="st18"
   d="m 514.3,485.4 c 0,-0.7 -0.1,-1.5 -0.1,-2.2 0.1,0.7 0.1,1.4 0.1,2.2 z" />
			<path
   id="XMLID_142_"
   class="st18"
   d="m 514.6,489.1 c -0.1,-0.7 -0.1,-1.4 -0.2,-2.2 0,0.2 0,0.5 0.1,0.7 l 0.3,4.3 0.1,-0.1 c -0.1,-1 -0.2,-1.9 -0.3,-2.7 z" />
			<path
   id="XMLID_143_"
   class="st18"
   d="m 517.4,464.7 v 0 c -0.6,1.8 -1.2,3.6 -1.6,5.5 0.4,-1.9 1,-3.7 1.6,-5.5 z" />
			<path
   id="XMLID_144_"
   class="st18"
   d="m 527.4,518 c 0.8,-4.8 2.1,-9.4 4.1,-13.8 5.9,-13.3 16.4,-23.5 29.5,-28.9 -0.6,0 -1.3,0 -1.9,0 -12.4,4.4 -22.9,13 -29.6,24.7 -2.4,4.2 -4.3,8.7 -5.5,13.3 l -0.2,0.9 0.5,0.8 c 1,1.4 2,2.7 3,4 z" />
			<path
   id="XMLID_145_"
   class="st18"
   d="m 529.5,521.5 c -0.4,-0.4 -0.8,-0.8 -1.1,-1.2 0.4,0.4 0.7,0.8 1.1,1.2 z" />
			<path
   id="XMLID_146_"
   class="st18"
   d="m 515,474.2 c 0,-0.1 0,-0.2 0.1,-0.4 -0.1,0.1 -0.1,0.2 -0.1,0.4 z" />
			<path
   id="XMLID_147_"
   class="st18"
   d="m 515.4,472.2 c 0.1,-0.5 0.2,-1 0.3,-1.5 -0.1,0.5 -0.2,1 -0.3,1.5 z" />
		</g>
		<circle
   id="XMLID_15_"
   class="st17"
   cx="569.29999"
   cy="483.10001"
   r="21" />
		<circle
   id="XMLID_55_"
   class="st18"
   cx="569.29999"
   cy="483.10001"
   r="15.5" />
		<circle
   id="XMLID_17_"
   class="st16"
   cx="569.20001"
   cy="483.10001"
   r="13" />
		<circle
   id="XMLID_16_"
   class="st5"
   cx="570.29999"
   cy="483.10001"
   r="56" />
	</g>
	<path
   id="XMLID_19_"
   class="st16"
   d="m 464.7,448.4 h -48.5 c -4.3,0 -7.8,-3.5 -7.8,-7.8 v 0 c 0,-4.3 3.5,-7.8 7.8,-7.8 h 48.5 c 4.3,0 7.8,3.5 7.8,7.8 v 0 c 0,4.3 -3.5,7.8 -7.8,7.8 z" />
	<path
   id="XMLID_103_"
   class="st19"
   d="m 416.3,448.4 c -3.7,0 -6.8,-3 -6.8,-6.8 0,-3.8 3,-6.8 6.8,-6.8 h 48.5 c 3.7,0 6.8,3 6.8,6.8 0,3.8 -3,6.8 -6.8,6.8 z" />
	<path
   id="XMLID_22_"
   class="st16"
   d="m 464.7,475.4 h -48.5 c -4.3,0 -7.8,-3.5 -7.8,-7.8 v 0 c 0,-4.3 3.5,-7.8 7.8,-7.8 h 48.5 c 4.3,0 7.8,3.5 7.8,7.8 v 0 c 0,4.3 -3.5,7.8 -7.8,7.8 z" />
	<path
   id="XMLID_83_"
   class="st19"
   d="m 416.3,475.4 c -3.7,0 -6.8,-3 -6.8,-6.8 0,-3.8 3,-6.8 6.8,-6.8 h 48.5 c 3.7,0 6.8,3 6.8,6.8 0,3.8 -3,6.8 -6.8,6.8 z" />
	<path
   id="XMLID_24_"
   class="st16"
   d="m 464.7,502.4 h -48.5 c -4.3,0 -7.8,-3.5 -7.8,-7.8 v 0 c 0,-4.3 3.5,-7.8 7.8,-7.8 h 48.5 c 4.3,0 7.8,3.5 7.8,7.8 v 0 c 0,4.3 -3.5,7.8 -7.8,7.8 z" />
	<path
   id="XMLID_54_"
   class="st19"
   d="m 416.3,502.4 c -3.7,0 -6.8,-3 -6.8,-6.8 0,-3.7 3,-6.8 6.8,-6.8 h 48.5 c 3.7,0 6.8,3 6.8,6.8 0,3.7 -3,6.8 -6.8,6.8 z" />
	<path
   id="XMLID_26_"
   class="st16"
   d="m 464.7,529.4 h -48.5 c -4.3,0 -7.8,-3.5 -7.8,-7.8 v 0 c 0,-4.3 3.5,-7.8 7.8,-7.8 h 48.5 c 4.3,0 7.8,3.5 7.8,7.8 v 0 c 0,4.3 -3.5,7.8 -7.8,7.8 z" />
	<path
   id="XMLID_52_"
   class="st19"
   d="m 416.3,529.4 c -3.7,0 -6.8,-3 -6.8,-6.8 0,-3.8 3,-6.8 6.8,-6.8 h 48.5 c 3.7,0 6.8,3 6.8,6.8 0,3.8 -3,6.8 -6.8,6.8 z" />
	<path
   id="XMLID_76_"
   class="st20"
   d="m 396.5,591.5 v 0 c -3.9,0 -7,-3.1 -7,-7 v -11.3 h 14 v 11.3 c 0,3.8 -3.1,7 -7,7 z" />
</g></g>

</svg>
